<svg width="737" height="599" viewBox="0 0 737 599" fill="none" xmlns="http://www.w3.org/2000/svg">
<path fill-rule="evenodd" clip-rule="evenodd" d="M736.552 77.1603V191.704C734.852 191.855 733.131 191.932 731.392 191.932C699.636 191.932 673.892 166.188 673.892 134.432C673.892 102.676 699.636 76.9319 731.392 76.9319C733.131 76.9319 734.852 77.0092 736.552 77.1603Z" fill="#FFD3D3"/>
<path fill-rule="evenodd" clip-rule="evenodd" d="M23.6189 87.8472C55.3753 87.8472 81.1189 62.1035 81.1189 30.3472C81.1189 19.3773 78.047 9.12495 72.7165 0.403381H0.052002V82.8113C7.24392 86.0469 15.2212 87.8472 23.6189 87.8472Z" fill="#FFD3D3"/>
<path fill-rule="evenodd" clip-rule="evenodd" d="M0.052002 598.849L49.0186 598.849C49.0186 591.232 47.5183 583.69 44.6036 576.653C41.6888 569.616 37.4165 563.222 32.0307 557.836C26.645 552.451 20.2511 548.178 13.2142 545.264C8.97853 543.509 4.55983 542.267 0.052002 541.556V598.849Z" fill="#FFD3D3"/>
</svg>
