<svg width="179" height="103" viewBox="0 0 179 103" fill="none" xmlns="http://www.w3.org/2000/svg">
<path d="M0.148926 3.75525C0.148926 5.4121 1.49207 6.75525 3.14893 6.75525C4.80578 6.75525 6.14893 5.4121 6.14893 3.75525C6.14893 2.09839 4.80578 0.755249 3.14893 0.755249C1.49207 0.755249 0.148926 2.09839 0.148926 3.75525Z" fill="#174AFF"/>
<path d="M0.148926 22.8413C0.148926 24.4982 1.49207 25.8413 3.14893 25.8413C4.80578 25.8413 6.14893 24.4982 6.14893 22.8413C6.14893 21.1845 4.80578 19.8413 3.14893 19.8413C1.49207 19.8413 0.148926 21.1845 0.148926 22.8413Z" fill="#174AFF"/>
<path d="M0.148926 41.9426C0.148926 43.5995 1.49207 44.9426 3.14893 44.9426C4.80578 44.9426 6.14893 43.5995 6.14893 41.9426C6.14893 40.2858 4.80578 38.9426 3.14893 38.9426C1.49207 38.9426 0.148926 40.2858 0.148926 41.9426Z" fill="#174AFF"/>
<path d="M0.148926 61.0286C0.148926 62.6854 1.49207 64.0286 3.14893 64.0286C4.80578 64.0286 6.14893 62.6854 6.14893 61.0286C6.14893 59.3717 4.80578 58.0286 3.14893 58.0286C1.49207 58.0286 0.148926 59.3717 0.148926 61.0286Z" fill="#174AFF"/>
<path d="M0.148926 80.1145C0.148926 81.7714 1.49207 83.1145 3.14893 83.1145C4.80578 83.1145 6.14893 81.7714 6.14893 80.1145C6.14893 78.4576 4.80578 77.1145 3.14893 77.1145C1.49207 77.1145 0.148926 78.4576 0.148926 80.1145Z" fill="#174AFF"/>
<path d="M0.148926 99.2004C0.148926 100.857 1.49208 102.2 3.14893 102.2C4.80578 102.2 6.14893 100.857 6.14893 99.2004C6.14893 97.5436 4.80578 96.2004 3.14893 96.2004C1.49208 96.2004 0.148926 97.5436 0.148926 99.2004Z" fill="#174AFF"/>
<path d="M17.4346 3.75525C17.4346 5.4121 18.7777 6.75525 20.4346 6.75525C22.0914 6.75525 23.4346 5.4121 23.4346 3.75525C23.4346 2.0984 22.0914 0.755249 20.4346 0.755249C18.7777 0.755249 17.4346 2.0984 17.4346 3.75525Z" fill="#174AFF"/>
<path d="M17.4346 22.8413C17.4346 24.4982 18.7777 25.8413 20.4346 25.8413C22.0914 25.8413 23.4346 24.4982 23.4346 22.8413C23.4346 21.1845 22.0914 19.8413 20.4346 19.8413C18.7777 19.8413 17.4346 21.1845 17.4346 22.8413Z" fill="#174AFF"/>
<path d="M17.4346 41.9426C17.4346 43.5995 18.7777 44.9426 20.4346 44.9426C22.0914 44.9426 23.4346 43.5995 23.4346 41.9426C23.4346 40.2858 22.0914 38.9426 20.4346 38.9426C18.7777 38.9426 17.4346 40.2858 17.4346 41.9426Z" fill="#174AFF"/>
<path d="M17.4346 61.0286C17.4346 62.6854 18.7777 64.0286 20.4346 64.0286C22.0914 64.0286 23.4346 62.6854 23.4346 61.0286C23.4346 59.3717 22.0914 58.0286 20.4346 58.0286C18.7777 58.0286 17.4346 59.3717 17.4346 61.0286Z" fill="#174AFF"/>
<path d="M17.4346 80.1145C17.4346 81.7714 18.7777 83.1145 20.4346 83.1145C22.0914 83.1145 23.4346 81.7714 23.4346 80.1145C23.4346 78.4576 22.0914 77.1145 20.4346 77.1145C18.7777 77.1145 17.4346 78.4576 17.4346 80.1145Z" fill="#174AFF"/>
<path d="M17.4346 99.2004C17.4346 100.857 18.7777 102.2 20.4346 102.2C22.0914 102.2 23.4346 100.857 23.4346 99.2004C23.4346 97.5436 22.0914 96.2004 20.4346 96.2004C18.7777 96.2004 17.4346 97.5436 17.4346 99.2004Z" fill="#174AFF"/>
<path d="M34.7202 3.75525C34.7202 5.4121 36.0634 6.75525 37.7202 6.75525C39.3771 6.75525 40.7202 5.4121 40.7202 3.75525C40.7202 2.0984 39.3771 0.755249 37.7202 0.755249C36.0634 0.755249 34.7202 2.0984 34.7202 3.75525Z" fill="#174AFF"/>
<path d="M34.7202 22.8413C34.7202 24.4982 36.0634 25.8413 37.7202 25.8413C39.3771 25.8413 40.7202 24.4982 40.7202 22.8413C40.7202 21.1845 39.3771 19.8413 37.7202 19.8413C36.0634 19.8413 34.7202 21.1845 34.7202 22.8413Z" fill="#174AFF"/>
<path d="M34.7202 41.9426C34.7202 43.5995 36.0634 44.9426 37.7202 44.9426C39.3771 44.9426 40.7202 43.5995 40.7202 41.9426C40.7202 40.2858 39.3771 38.9426 37.7202 38.9426C36.0634 38.9426 34.7202 40.2858 34.7202 41.9426Z" fill="#174AFF"/>
<path d="M34.7202 61.0286C34.7202 62.6854 36.0634 64.0286 37.7202 64.0286C39.3771 64.0286 40.7202 62.6854 40.7202 61.0286C40.7202 59.3717 39.3771 58.0286 37.7202 58.0286C36.0634 58.0286 34.7202 59.3717 34.7202 61.0286Z" fill="#174AFF"/>
<path d="M34.7202 80.1145C34.7202 81.7714 36.0634 83.1145 37.7202 83.1145C39.3771 83.1145 40.7202 81.7714 40.7202 80.1145C40.7202 78.4576 39.3771 77.1145 37.7202 77.1145C36.0634 77.1145 34.7202 78.4576 34.7202 80.1145Z" fill="#174AFF"/>
<path d="M34.7202 99.2004C34.7202 100.857 36.0634 102.2 37.7202 102.2C39.3771 102.2 40.7202 100.857 40.7202 99.2004C40.7202 97.5436 39.3771 96.2004 37.7202 96.2004C36.0634 96.2004 34.7202 97.5436 34.7202 99.2004Z" fill="#174AFF"/>
<path d="M52.0059 3.75525C52.0059 5.4121 53.349 6.75525 55.0059 6.75525C56.6627 6.75525 58.0059 5.4121 58.0059 3.75525C58.0059 2.0984 56.6627 0.755249 55.0059 0.755249C53.349 0.755249 52.0059 2.0984 52.0059 3.75525Z" fill="#174AFF"/>
<path d="M52.0059 22.8413C52.0059 24.4982 53.349 25.8413 55.0059 25.8413C56.6627 25.8413 58.0059 24.4982 58.0059 22.8413C58.0059 21.1845 56.6627 19.8413 55.0059 19.8413C53.349 19.8413 52.0059 21.1845 52.0059 22.8413Z" fill="#174AFF"/>
<path d="M52.0059 41.9426C52.0059 43.5995 53.349 44.9426 55.0059 44.9426C56.6627 44.9426 58.0059 43.5995 58.0059 41.9426C58.0059 40.2858 56.6627 38.9426 55.0059 38.9426C53.349 38.9426 52.0059 40.2858 52.0059 41.9426Z" fill="#174AFF"/>
<path d="M52.0059 61.0286C52.0059 62.6854 53.349 64.0286 55.0059 64.0286C56.6627 64.0286 58.0059 62.6854 58.0059 61.0286C58.0059 59.3717 56.6627 58.0286 55.0059 58.0286C53.349 58.0286 52.0059 59.3717 52.0059 61.0286Z" fill="#174AFF"/>
<path d="M52.0059 80.1145C52.0059 81.7714 53.349 83.1145 55.0059 83.1145C56.6627 83.1145 58.0059 81.7714 58.0059 80.1145C58.0059 78.4576 56.6627 77.1145 55.0059 77.1145C53.349 77.1145 52.0059 78.4576 52.0059 80.1145Z" fill="#174AFF"/>
<path d="M52.0059 99.2004C52.0059 100.857 53.349 102.2 55.0059 102.2C56.6627 102.2 58.0059 100.857 58.0059 99.2004C58.0059 97.5436 56.6627 96.2004 55.0059 96.2004C53.349 96.2004 52.0059 97.5436 52.0059 99.2004Z" fill="#174AFF"/>
<path d="M69.2915 3.75525C69.2915 5.4121 70.6346 6.75525 72.2915 6.75525C73.9484 6.75525 75.2915 5.4121 75.2915 3.75525C75.2915 2.0984 73.9484 0.755249 72.2915 0.755249C70.6346 0.755249 69.2915 2.0984 69.2915 3.75525Z" fill="#174AFF"/>
<path d="M69.2915 22.8413C69.2915 24.4982 70.6346 25.8413 72.2915 25.8413C73.9484 25.8413 75.2915 24.4982 75.2915 22.8413C75.2915 21.1845 73.9484 19.8413 72.2915 19.8413C70.6346 19.8413 69.2915 21.1845 69.2915 22.8413Z" fill="#174AFF"/>
<path d="M69.2915 41.9426C69.2915 43.5995 70.6346 44.9426 72.2915 44.9426C73.9484 44.9426 75.2915 43.5995 75.2915 41.9426C75.2915 40.2858 73.9484 38.9426 72.2915 38.9426C70.6346 38.9426 69.2915 40.2858 69.2915 41.9426Z" fill="#174AFF"/>
<path d="M69.2915 61.0286C69.2915 62.6854 70.6346 64.0286 72.2915 64.0286C73.9484 64.0286 75.2915 62.6854 75.2915 61.0286C75.2915 59.3717 73.9484 58.0286 72.2915 58.0286C70.6346 58.0286 69.2915 59.3717 69.2915 61.0286Z" fill="#174AFF"/>
<path d="M69.2915 80.1145C69.2915 81.7714 70.6346 83.1145 72.2915 83.1145C73.9484 83.1145 75.2915 81.7714 75.2915 80.1145C75.2915 78.4576 73.9484 77.1145 72.2915 77.1145C70.6346 77.1145 69.2915 78.4576 69.2915 80.1145Z" fill="#174AFF"/>
<path d="M69.2915 99.2004C69.2915 100.857 70.6347 102.2 72.2915 102.2C73.9484 102.2 75.2915 100.857 75.2915 99.2004C75.2915 97.5436 73.9484 96.2004 72.2915 96.2004C70.6347 96.2004 69.2915 97.5436 69.2915 99.2004Z" fill="#174AFF"/>
<path d="M86.5776 3.75525C86.5776 5.4121 87.9208 6.75525 89.5776 6.75525C91.2345 6.75525 92.5776 5.4121 92.5776 3.75525C92.5776 2.0984 91.2345 0.755249 89.5776 0.755249C87.9208 0.755249 86.5776 2.0984 86.5776 3.75525Z" fill="#174AFF"/>
<path d="M86.5776 22.8413C86.5776 24.4982 87.9208 25.8413 89.5776 25.8413C91.2345 25.8413 92.5776 24.4982 92.5776 22.8413C92.5776 21.1845 91.2345 19.8413 89.5776 19.8413C87.9208 19.8413 86.5776 21.1845 86.5776 22.8413Z" fill="#174AFF"/>
<path d="M86.5776 41.9426C86.5776 43.5995 87.9208 44.9426 89.5776 44.9426C91.2345 44.9426 92.5776 43.5995 92.5776 41.9426C92.5776 40.2858 91.2345 38.9426 89.5776 38.9426C87.9208 38.9426 86.5776 40.2858 86.5776 41.9426Z" fill="#174AFF"/>
<path d="M86.5776 61.0286C86.5776 62.6854 87.9208 64.0286 89.5776 64.0286C91.2345 64.0286 92.5776 62.6854 92.5776 61.0286C92.5776 59.3717 91.2345 58.0286 89.5776 58.0286C87.9208 58.0286 86.5776 59.3717 86.5776 61.0286Z" fill="#174AFF"/>
<path d="M86.5776 80.1145C86.5776 81.7714 87.9208 83.1145 89.5776 83.1145C91.2345 83.1145 92.5776 81.7714 92.5776 80.1145C92.5776 78.4576 91.2345 77.1145 89.5776 77.1145C87.9208 77.1145 86.5776 78.4576 86.5776 80.1145Z" fill="#174AFF"/>
<path d="M86.5776 99.2004C86.5776 100.857 87.9208 102.2 89.5776 102.2C91.2345 102.2 92.5776 100.857 92.5776 99.2004C92.5776 97.5436 91.2345 96.2004 89.5776 96.2004C87.9208 96.2004 86.5776 97.5436 86.5776 99.2004Z" fill="#174AFF"/>
<path d="M103.863 3.75525C103.863 5.4121 105.206 6.75525 106.863 6.75525C108.52 6.75525 109.863 5.4121 109.863 3.75525C109.863 2.0984 108.52 0.755249 106.863 0.755249C105.206 0.755249 103.863 2.0984 103.863 3.75525Z" fill="#174AFF"/>
<path d="M103.863 22.8413C103.863 24.4982 105.206 25.8413 106.863 25.8413C108.52 25.8413 109.863 24.4982 109.863 22.8413C109.863 21.1845 108.52 19.8413 106.863 19.8413C105.206 19.8413 103.863 21.1845 103.863 22.8413Z" fill="#174AFF"/>
<path d="M103.863 41.9426C103.863 43.5995 105.206 44.9426 106.863 44.9426C108.52 44.9426 109.863 43.5995 109.863 41.9426C109.863 40.2858 108.52 38.9426 106.863 38.9426C105.206 38.9426 103.863 40.2858 103.863 41.9426Z" fill="#174AFF"/>
<path d="M103.863 61.0286C103.863 62.6854 105.206 64.0286 106.863 64.0286C108.52 64.0286 109.863 62.6854 109.863 61.0286C109.863 59.3717 108.52 58.0286 106.863 58.0286C105.206 58.0286 103.863 59.3717 103.863 61.0286Z" fill="#174AFF"/>
<path d="M103.863 80.1145C103.863 81.7714 105.206 83.1145 106.863 83.1145C108.52 83.1145 109.863 81.7714 109.863 80.1145C109.863 78.4576 108.52 77.1145 106.863 77.1145C105.206 77.1145 103.863 78.4576 103.863 80.1145Z" fill="#174AFF"/>
<path d="M103.863 99.2004C103.863 100.857 105.206 102.2 106.863 102.2C108.52 102.2 109.863 100.857 109.863 99.2004C109.863 97.5436 108.52 96.2004 106.863 96.2004C105.206 96.2004 103.863 97.5436 103.863 99.2004Z" fill="#174AFF"/>
<path d="M121.149 3.75525C121.149 5.4121 122.492 6.75525 124.149 6.75525C125.806 6.75525 127.149 5.4121 127.149 3.75525C127.149 2.0984 125.806 0.755249 124.149 0.755249C122.492 0.755249 121.149 2.0984 121.149 3.75525Z" fill="#174AFF"/>
<path d="M121.149 22.8413C121.149 24.4982 122.492 25.8413 124.149 25.8413C125.806 25.8413 127.149 24.4982 127.149 22.8413C127.149 21.1845 125.806 19.8413 124.149 19.8413C122.492 19.8413 121.149 21.1845 121.149 22.8413Z" fill="#174AFF"/>
<path d="M121.149 41.9426C121.149 43.5995 122.492 44.9426 124.149 44.9426C125.806 44.9426 127.149 43.5995 127.149 41.9426C127.149 40.2858 125.806 38.9426 124.149 38.9426C122.492 38.9426 121.149 40.2858 121.149 41.9426Z" fill="#174AFF"/>
<path d="M121.149 61.0286C121.149 62.6854 122.492 64.0286 124.149 64.0286C125.806 64.0286 127.149 62.6854 127.149 61.0286C127.149 59.3717 125.806 58.0286 124.149 58.0286C122.492 58.0286 121.149 59.3717 121.149 61.0286Z" fill="#174AFF"/>
<path d="M121.149 80.1145C121.149 81.7714 122.492 83.1145 124.149 83.1145C125.806 83.1145 127.149 81.7714 127.149 80.1145C127.149 78.4576 125.806 77.1145 124.149 77.1145C122.492 77.1145 121.149 78.4576 121.149 80.1145Z" fill="#174AFF"/>
<path d="M121.149 99.2004C121.149 100.857 122.492 102.2 124.149 102.2C125.806 102.2 127.149 100.857 127.149 99.2004C127.149 97.5436 125.806 96.2004 124.149 96.2004C122.492 96.2004 121.149 97.5436 121.149 99.2004Z" fill="#174AFF"/>
<path d="M138.419 3.75525C138.419 5.4121 139.763 6.75525 141.419 6.75525C143.076 6.75525 144.419 5.4121 144.419 3.75525C144.419 2.0984 143.076 0.755249 141.419 0.755249C139.763 0.755249 138.419 2.0984 138.419 3.75525Z" fill="#174AFF"/>
<path d="M138.419 22.8413C138.419 24.4982 139.763 25.8413 141.419 25.8413C143.076 25.8413 144.419 24.4982 144.419 22.8413C144.419 21.1845 143.076 19.8413 141.419 19.8413C139.763 19.8413 138.419 21.1845 138.419 22.8413Z" fill="#174AFF"/>
<path d="M138.419 41.9426C138.419 43.5995 139.763 44.9426 141.419 44.9426C143.076 44.9426 144.419 43.5995 144.419 41.9426C144.419 40.2858 143.076 38.9426 141.419 38.9426C139.763 38.9426 138.419 40.2858 138.419 41.9426Z" fill="#174AFF"/>
<path d="M138.419 61.0286C138.419 62.6854 139.763 64.0286 141.419 64.0286C143.076 64.0286 144.419 62.6854 144.419 61.0286C144.419 59.3717 143.076 58.0286 141.419 58.0286C139.763 58.0286 138.419 59.3717 138.419 61.0286Z" fill="#174AFF"/>
<path d="M138.419 80.1145C138.419 81.7714 139.763 83.1145 141.419 83.1145C143.076 83.1145 144.419 81.7714 144.419 80.1145C144.419 78.4576 143.076 77.1145 141.419 77.1145C139.763 77.1145 138.419 78.4576 138.419 80.1145Z" fill="#174AFF"/>
<path d="M138.419 99.2004C138.419 100.857 139.763 102.2 141.419 102.2C143.076 102.2 144.419 100.857 144.419 99.2004C144.419 97.5436 143.076 96.2004 141.419 96.2004C139.763 96.2004 138.419 97.5436 138.419 99.2004Z" fill="#174AFF"/>
<path d="M155.705 3.75525C155.705 5.4121 157.048 6.75525 158.705 6.75525C160.362 6.75525 161.705 5.4121 161.705 3.75525C161.705 2.0984 160.362 0.755249 158.705 0.755249C157.048 0.755249 155.705 2.0984 155.705 3.75525Z" fill="#174AFF"/>
<path d="M155.705 22.8413C155.705 24.4982 157.048 25.8413 158.705 25.8413C160.362 25.8413 161.705 24.4982 161.705 22.8413C161.705 21.1845 160.362 19.8413 158.705 19.8413C157.048 19.8413 155.705 21.1845 155.705 22.8413Z" fill="#174AFF"/>
<path d="M155.705 41.9426C155.705 43.5995 157.048 44.9426 158.705 44.9426C160.362 44.9426 161.705 43.5995 161.705 41.9426C161.705 40.2858 160.362 38.9426 158.705 38.9426C157.048 38.9426 155.705 40.2858 155.705 41.9426Z" fill="#174AFF"/>
<path d="M155.705 61.0286C155.705 62.6854 157.048 64.0286 158.705 64.0286C160.362 64.0286 161.705 62.6854 161.705 61.0286C161.705 59.3717 160.362 58.0286 158.705 58.0286C157.048 58.0286 155.705 59.3717 155.705 61.0286Z" fill="#174AFF"/>
<path d="M155.705 80.1145C155.705 81.7714 157.048 83.1145 158.705 83.1145C160.362 83.1145 161.705 81.7714 161.705 80.1145C161.705 78.4576 160.362 77.1145 158.705 77.1145C157.048 77.1145 155.705 78.4576 155.705 80.1145Z" fill="#174AFF"/>
<path d="M155.705 99.2004C155.705 100.857 157.048 102.2 158.705 102.2C160.362 102.2 161.705 100.857 161.705 99.2004C161.705 97.5436 160.362 96.2004 158.705 96.2004C157.048 96.2004 155.705 97.5436 155.705 99.2004Z" fill="#174AFF"/>
<path d="M172.991 3.75525C172.991 5.4121 174.334 6.75525 175.991 6.75525C177.648 6.75525 178.991 5.4121 178.991 3.75525C178.991 2.0984 177.648 0.755249 175.991 0.755249C174.334 0.755249 172.991 2.0984 172.991 3.75525Z" fill="#174AFF"/>
<path d="M172.991 22.8413C172.991 24.4982 174.334 25.8413 175.991 25.8413C177.648 25.8413 178.991 24.4982 178.991 22.8413C178.991 21.1845 177.648 19.8413 175.991 19.8413C174.334 19.8413 172.991 21.1845 172.991 22.8413Z" fill="#174AFF"/>
<path d="M172.991 41.9426C172.991 43.5995 174.334 44.9426 175.991 44.9426C177.648 44.9426 178.991 43.5995 178.991 41.9426C178.991 40.2858 177.648 38.9426 175.991 38.9426C174.334 38.9426 172.991 40.2858 172.991 41.9426Z" fill="#174AFF"/>
<path d="M172.991 61.0286C172.991 62.6854 174.334 64.0286 175.991 64.0286C177.648 64.0286 178.991 62.6854 178.991 61.0286C178.991 59.3717 177.648 58.0286 175.991 58.0286C174.334 58.0286 172.991 59.3717 172.991 61.0286Z" fill="#174AFF"/>
<path d="M172.991 80.1145C172.991 81.7714 174.334 83.1145 175.991 83.1145C177.648 83.1145 178.991 81.7714 178.991 80.1145C178.991 78.4576 177.648 77.1145 175.991 77.1145C174.334 77.1145 172.991 78.4576 172.991 80.1145Z" fill="#174AFF"/>
<path d="M172.991 99.2004C172.991 100.857 174.334 102.2 175.991 102.2C177.648 102.2 178.991 100.857 178.991 99.2004C178.991 97.5436 177.648 96.2004 175.991 96.2004C174.334 96.2004 172.991 97.5436 172.991 99.2004Z" fill="#174AFF"/>
</svg>
