<svg width="737" height="519" viewBox="0 0 737 519" fill="none" xmlns="http://www.w3.org/2000/svg">
<path fill-rule="evenodd" clip-rule="evenodd" d="M737 76.7569V191.3C735.3 191.451 733.579 191.529 731.84 191.529C700.084 191.529 674.34 165.785 674.34 134.029C674.34 102.272 700.084 76.5286 731.84 76.5286C733.579 76.5286 735.3 76.6058 737 76.7569Z" fill="#FFD3D3"/>
<path fill-rule="evenodd" clip-rule="evenodd" d="M24.0669 87.4438C55.8233 87.4438 81.5669 61.7002 81.5669 29.9438C81.5669 18.9739 78.495 8.72157 73.1645 0H0.5V82.4079C7.69192 85.6435 15.6692 87.4438 24.0669 87.4438Z" fill="#FFD3D3"/>
<path fill-rule="evenodd" clip-rule="evenodd" d="M49.4666 518.445H0.5V461.153C5.00783 461.864 9.42653 463.106 13.6622 464.86C20.6991 467.775 27.0929 472.047 32.4787 477.433C37.8645 482.819 42.1368 489.213 45.0516 496.25C47.9663 503.286 49.4665 510.829 49.4666 518.445Z" fill="#FFD3D3"/>
</svg>
