<svg width="320" height="590" viewBox="0 0 320 590" fill="none" xmlns="http://www.w3.org/2000/svg">
<path d="M150.455 12.122C137.28 48.3137 142.105 91.9505 141.966 130.046C141.8 175.905 141.386 221.754 141.052 267.606C140.409 356.956 136.094 446.401 139.732 535.731C140.67 558.76 172.897 560.151 175.53 537.131C185.943 445.939 185.238 353.742 184.858 262.076C184.668 218.597 183.664 175.07 182.159 131.618C180.811 92.5313 183.333 46.8961 167.634 10.5466C164.251 2.74268 153 5.12713 150.455 12.1362L150.455 12.122Z" fill="#EE4D2D"/>
<path d="M268.82 440.334C275.863 436.26 283.378 434.255 291.391 434.292C286.252 424.603 281.112 414.934 275.974 405.244C226.396 440.763 186.451 496.547 145.419 541.529L180.444 542.899C156.896 516.082 132.915 489.684 108.964 463.232C87.126 439.137 66.9344 411.584 39.4044 393.864C21.2844 382.199 -0.538578 403.075 9.14381 421.847C24.1291 450.914 49.7758 473.726 71.6395 497.746C95.6495 524.136 119.63 550.533 144.049 576.554C152.409 585.458 170.3 588.208 179.074 577.924C219.516 530.53 272.142 481.861 301.844 426.884C310.357 411.124 289.323 389.645 275.969 405.245C269.125 413.24 263.98 420.49 259.286 430.015C256.163 436.316 261.85 443.754 268.816 440.335L268.82 440.334Z" fill="#EE4D2D"/>
</svg>
