<svg width="1441" height="572" viewBox="0 0 1441 572" fill="none" xmlns="http://www.w3.org/2000/svg">
<circle cx="226.035" cy="164.378" r="15" fill="#174AFF"/>
<mask id="mask0_219_172" style="mask-type:alpha" maskUnits="userSpaceOnUse" x="1145" y="463" width="196" height="109">
<rect x="1145.06" y="463.328" width="195.797" height="107.714" fill="#C4C4C4"/>
</mask>
<g mask="url(#mask0_219_172)">
<path d="M1160.92 570.889C1160.94 559.193 1163.27 547.615 1167.76 536.816C1172.26 526.018 1178.83 516.21 1187.12 507.954C1195.4 499.697 1205.23 493.153 1216.05 488.696C1226.86 484.238 1238.45 481.954 1250.14 481.974C1261.84 481.994 1273.42 484.318 1284.22 488.812C1295.02 493.307 1304.82 499.884 1313.08 508.169C1321.34 516.453 1327.88 526.283 1332.34 537.097C1336.79 547.911 1339.08 559.497 1339.06 571.193L1287.84 571.106C1287.85 566.136 1286.88 561.213 1284.98 556.618C1283.09 552.023 1280.31 547.846 1276.8 544.326C1273.29 540.805 1269.12 538.011 1264.53 536.101C1259.95 534.191 1255.03 533.204 1250.06 533.195C1245.09 533.187 1240.16 534.157 1235.57 536.051C1230.97 537.946 1226.8 540.726 1223.28 544.234C1219.76 547.743 1216.96 551.91 1215.05 556.499C1213.14 561.087 1212.15 566.007 1212.15 570.977L1160.92 570.889Z" fill="#174AFF"/>
</g>
<path d="M81.8604 490.039C81.8604 491.696 83.2035 493.039 84.8604 493.039C86.5172 493.039 87.8604 491.696 87.8604 490.039C87.8604 488.382 86.5172 487.039 84.8604 487.039C83.2035 487.039 81.8604 488.382 81.8604 490.039Z" fill="#FFD3D3"/>
<path d="M81.8604 509.125C81.8604 510.782 83.2035 512.125 84.8604 512.125C86.5172 512.125 87.8604 510.782 87.8604 509.125C87.8604 507.468 86.5172 506.125 84.8604 506.125C83.2035 506.125 81.8604 507.468 81.8604 509.125Z" fill="#FFD3D3"/>
<path d="M81.8604 528.226C81.8604 529.883 83.2035 531.226 84.8604 531.226C86.5172 531.226 87.8604 529.883 87.8604 528.226C87.8604 526.569 86.5172 525.226 84.8604 525.226C83.2035 525.226 81.8604 526.569 81.8604 528.226Z" fill="#FFD3D3"/>
<path d="M81.8604 547.312C81.8604 548.969 83.2035 550.312 84.8604 550.312C86.5172 550.312 87.8604 548.969 87.8604 547.312C87.8604 545.655 86.5172 544.312 84.8604 544.312C83.2035 544.312 81.8604 545.655 81.8604 547.312Z" fill="#FFD3D3"/>
<path d="M81.8604 566.398C81.8604 568.055 83.2035 569.398 84.8604 569.398C86.5172 569.398 87.8604 568.055 87.8604 566.398C87.8604 564.741 86.5172 563.398 84.8604 563.398C83.2035 563.398 81.8604 564.741 81.8604 566.398Z" fill="#FFD3D3"/>
<path d="M99.146 490.039C99.146 491.696 100.489 493.039 102.146 493.039C103.803 493.039 105.146 491.696 105.146 490.039C105.146 488.382 103.803 487.039 102.146 487.039C100.489 487.039 99.146 488.382 99.146 490.039Z" fill="#FFD3D3"/>
<path d="M99.146 509.125C99.146 510.782 100.489 512.125 102.146 512.125C103.803 512.125 105.146 510.782 105.146 509.125C105.146 507.468 103.803 506.125 102.146 506.125C100.489 506.125 99.146 507.468 99.146 509.125Z" fill="#FFD3D3"/>
<path d="M99.146 528.226C99.146 529.883 100.489 531.226 102.146 531.226C103.803 531.226 105.146 529.883 105.146 528.226C105.146 526.569 103.803 525.226 102.146 525.226C100.489 525.226 99.146 526.569 99.146 528.226Z" fill="#FFD3D3"/>
<path d="M99.146 547.312C99.146 548.969 100.489 550.312 102.146 550.312C103.803 550.312 105.146 548.969 105.146 547.312C105.146 545.655 103.803 544.312 102.146 544.312C100.489 544.312 99.146 545.655 99.146 547.312Z" fill="#FFD3D3"/>
<path d="M99.146 566.398C99.146 568.055 100.489 569.398 102.146 569.398C103.803 569.398 105.146 568.055 105.146 566.398C105.146 564.741 103.803 563.398 102.146 563.398C100.489 563.398 99.146 564.741 99.146 566.398Z" fill="#FFD3D3"/>
<path d="M116.432 490.039C116.432 491.696 117.775 493.039 119.432 493.039C121.089 493.039 122.432 491.696 122.432 490.039C122.432 488.382 121.089 487.039 119.432 487.039C117.775 487.039 116.432 488.382 116.432 490.039Z" fill="#FFD3D3"/>
<path d="M116.432 509.125C116.432 510.782 117.775 512.125 119.432 512.125C121.089 512.125 122.432 510.782 122.432 509.125C122.432 507.468 121.089 506.125 119.432 506.125C117.775 506.125 116.432 507.468 116.432 509.125Z" fill="#FFD3D3"/>
<path d="M116.432 528.226C116.432 529.883 117.775 531.226 119.432 531.226C121.089 531.226 122.432 529.883 122.432 528.226C122.432 526.569 121.089 525.226 119.432 525.226C117.775 525.226 116.432 526.569 116.432 528.226Z" fill="#FFD3D3"/>
<path d="M116.432 547.312C116.432 548.969 117.775 550.312 119.432 550.312C121.089 550.312 122.432 548.969 122.432 547.312C122.432 545.655 121.089 544.312 119.432 544.312C117.775 544.312 116.432 545.655 116.432 547.312Z" fill="#FFD3D3"/>
<path d="M116.432 566.398C116.432 568.055 117.775 569.398 119.432 569.398C121.089 569.398 122.432 568.055 122.432 566.398C122.432 564.741 121.089 563.398 119.432 563.398C117.775 563.398 116.432 564.741 116.432 566.398Z" fill="#FFD3D3"/>
<path d="M133.718 490.039C133.718 491.696 135.061 493.039 136.718 493.039C138.374 493.039 139.718 491.696 139.718 490.039C139.718 488.382 138.374 487.039 136.718 487.039C135.061 487.039 133.718 488.382 133.718 490.039Z" fill="#FFD3D3"/>
<path d="M133.718 509.125C133.718 510.782 135.061 512.125 136.718 512.125C138.374 512.125 139.718 510.782 139.718 509.125C139.718 507.468 138.374 506.125 136.718 506.125C135.061 506.125 133.718 507.468 133.718 509.125Z" fill="#FFD3D3"/>
<path d="M133.718 528.226C133.718 529.883 135.061 531.226 136.718 531.226C138.374 531.226 139.718 529.883 139.718 528.226C139.718 526.569 138.374 525.226 136.718 525.226C135.061 525.226 133.718 526.569 133.718 528.226Z" fill="#FFD3D3"/>
<path d="M133.718 547.312C133.718 548.969 135.061 550.312 136.718 550.312C138.374 550.312 139.718 548.969 139.718 547.312C139.718 545.655 138.374 544.312 136.718 544.312C135.061 544.312 133.718 545.655 133.718 547.312Z" fill="#FFD3D3"/>
<path d="M133.718 566.398C133.718 568.055 135.061 569.398 136.718 569.398C138.374 569.398 139.718 568.055 139.718 566.398C139.718 564.741 138.374 563.398 136.718 563.398C135.061 563.398 133.718 564.741 133.718 566.398Z" fill="#FFD3D3"/>
<path d="M151.003 490.039C151.003 491.696 152.346 493.039 154.003 493.039C155.66 493.039 157.003 491.696 157.003 490.039C157.003 488.382 155.66 487.039 154.003 487.039C152.346 487.039 151.003 488.382 151.003 490.039Z" fill="#FFD3D3"/>
<path d="M151.003 509.125C151.003 510.782 152.346 512.125 154.003 512.125C155.66 512.125 157.003 510.782 157.003 509.125C157.003 507.468 155.66 506.125 154.003 506.125C152.346 506.125 151.003 507.468 151.003 509.125Z" fill="#FFD3D3"/>
<path d="M151.003 528.226C151.003 529.883 152.346 531.226 154.003 531.226C155.66 531.226 157.003 529.883 157.003 528.226C157.003 526.569 155.66 525.226 154.003 525.226C152.346 525.226 151.003 526.569 151.003 528.226Z" fill="#FFD3D3"/>
<path d="M151.003 547.312C151.003 548.969 152.346 550.312 154.003 550.312C155.66 550.312 157.003 548.969 157.003 547.312C157.003 545.655 155.66 544.312 154.003 544.312C152.346 544.312 151.003 545.655 151.003 547.312Z" fill="#FFD3D3"/>
<path d="M151.003 566.398C151.003 568.055 152.346 569.398 154.003 569.398C155.66 569.398 157.003 568.055 157.003 566.398C157.003 564.741 155.66 563.398 154.003 563.398C152.346 563.398 151.003 564.741 151.003 566.398Z" fill="#FFD3D3"/>
<path d="M168.289 490.039C168.289 491.696 169.632 493.039 171.289 493.039C172.946 493.039 174.289 491.696 174.289 490.039C174.289 488.382 172.946 487.039 171.289 487.039C169.632 487.039 168.289 488.382 168.289 490.039Z" fill="#FFD3D3"/>
<path d="M168.289 509.125C168.289 510.782 169.632 512.125 171.289 512.125C172.946 512.125 174.289 510.782 174.289 509.125C174.289 507.468 172.946 506.125 171.289 506.125C169.632 506.125 168.289 507.468 168.289 509.125Z" fill="#FFD3D3"/>
<path d="M168.289 528.226C168.289 529.883 169.632 531.226 171.289 531.226C172.946 531.226 174.289 529.883 174.289 528.226C174.289 526.569 172.946 525.226 171.289 525.226C169.632 525.226 168.289 526.569 168.289 528.226Z" fill="#FFD3D3"/>
<path d="M168.289 547.312C168.289 548.969 169.632 550.312 171.289 550.312C172.946 550.312 174.289 548.969 174.289 547.312C174.289 545.655 172.946 544.312 171.289 544.312C169.632 544.312 168.289 545.655 168.289 547.312Z" fill="#FFD3D3"/>
<path d="M168.289 566.398C168.289 568.055 169.632 569.398 171.289 569.398C172.946 569.398 174.289 568.055 174.289 566.398C174.289 564.741 172.946 563.398 171.289 563.398C169.632 563.398 168.289 564.741 168.289 566.398Z" fill="#FFD3D3"/>
<path d="M185.575 490.039C185.575 491.696 186.918 493.039 188.575 493.039C190.232 493.039 191.575 491.696 191.575 490.039C191.575 488.382 190.232 487.039 188.575 487.039C186.918 487.039 185.575 488.382 185.575 490.039Z" fill="#FFD3D3"/>
<path d="M185.575 509.125C185.575 510.782 186.918 512.125 188.575 512.125C190.232 512.125 191.575 510.782 191.575 509.125C191.575 507.468 190.232 506.125 188.575 506.125C186.918 506.125 185.575 507.468 185.575 509.125Z" fill="#FFD3D3"/>
<path d="M185.575 528.226C185.575 529.883 186.918 531.226 188.575 531.226C190.232 531.226 191.575 529.883 191.575 528.226C191.575 526.569 190.232 525.226 188.575 525.226C186.918 525.226 185.575 526.569 185.575 528.226Z" fill="#FFD3D3"/>
<path d="M185.575 547.312C185.575 548.969 186.918 550.312 188.575 550.312C190.232 550.312 191.575 548.969 191.575 547.312C191.575 545.655 190.232 544.312 188.575 544.312C186.918 544.312 185.575 545.655 185.575 547.312Z" fill="#FFD3D3"/>
<path d="M185.575 566.398C185.575 568.055 186.918 569.398 188.575 569.398C190.232 569.398 191.575 568.055 191.575 566.398C191.575 564.741 190.232 563.398 188.575 563.398C186.918 563.398 185.575 564.741 185.575 566.398Z" fill="#FFD3D3"/>
<path d="M202.86 490.039C202.86 491.696 204.203 493.039 205.86 493.039C207.517 493.039 208.86 491.696 208.86 490.039C208.86 488.382 207.517 487.039 205.86 487.039C204.203 487.039 202.86 488.382 202.86 490.039Z" fill="#FFD3D3"/>
<path d="M202.86 509.125C202.86 510.782 204.203 512.125 205.86 512.125C207.517 512.125 208.86 510.782 208.86 509.125C208.86 507.468 207.517 506.125 205.86 506.125C204.203 506.125 202.86 507.468 202.86 509.125Z" fill="#FFD3D3"/>
<path d="M202.86 528.226C202.86 529.883 204.203 531.226 205.86 531.226C207.517 531.226 208.86 529.883 208.86 528.226C208.86 526.569 207.517 525.226 205.86 525.226C204.203 525.226 202.86 526.569 202.86 528.226Z" fill="#FFD3D3"/>
<path d="M202.86 547.312C202.86 548.969 204.203 550.312 205.86 550.312C207.517 550.312 208.86 548.969 208.86 547.312C208.86 545.655 207.517 544.312 205.86 544.312C204.203 544.312 202.86 545.655 202.86 547.312Z" fill="#FFD3D3"/>
<path d="M202.86 566.398C202.86 568.055 204.203 569.398 205.86 569.398C207.517 569.398 208.86 568.055 208.86 566.398C208.86 564.741 207.517 563.398 205.86 563.398C204.203 563.398 202.86 564.741 202.86 566.398Z" fill="#FFD3D3"/>
<path d="M220.131 490.039C220.131 491.696 221.474 493.039 223.131 493.039C224.788 493.039 226.131 491.696 226.131 490.039C226.131 488.382 224.788 487.039 223.131 487.039C221.474 487.039 220.131 488.382 220.131 490.039Z" fill="#FFD3D3"/>
<path d="M220.131 509.125C220.131 510.782 221.474 512.125 223.131 512.125C224.788 512.125 226.131 510.782 226.131 509.125C226.131 507.468 224.788 506.125 223.131 506.125C221.474 506.125 220.131 507.468 220.131 509.125Z" fill="#FFD3D3"/>
<path d="M220.131 528.226C220.131 529.883 221.474 531.226 223.131 531.226C224.788 531.226 226.131 529.883 226.131 528.226C226.131 526.569 224.788 525.226 223.131 525.226C221.474 525.226 220.131 526.569 220.131 528.226Z" fill="#FFD3D3"/>
<path d="M220.131 547.312C220.131 548.969 221.474 550.312 223.131 550.312C224.788 550.312 226.131 548.969 226.131 547.312C226.131 545.655 224.788 544.312 223.131 544.312C221.474 544.312 220.131 545.655 220.131 547.312Z" fill="#FFD3D3"/>
<path d="M220.131 566.398C220.131 568.055 221.474 569.398 223.131 569.398C224.788 569.398 226.131 568.055 226.131 566.398C226.131 564.741 224.788 563.398 223.131 563.398C221.474 563.398 220.131 564.741 220.131 566.398Z" fill="#FFD3D3"/>
<path d="M237.417 490.039C237.417 491.696 238.76 493.039 240.417 493.039C242.073 493.039 243.417 491.696 243.417 490.039C243.417 488.382 242.073 487.039 240.417 487.039C238.76 487.039 237.417 488.382 237.417 490.039Z" fill="#FFD3D3"/>
<path d="M237.417 509.125C237.417 510.782 238.76 512.125 240.417 512.125C242.073 512.125 243.417 510.782 243.417 509.125C243.417 507.468 242.073 506.125 240.417 506.125C238.76 506.125 237.417 507.468 237.417 509.125Z" fill="#FFD3D3"/>
<path d="M237.417 528.226C237.417 529.883 238.76 531.226 240.417 531.226C242.073 531.226 243.417 529.883 243.417 528.226C243.417 526.569 242.073 525.226 240.417 525.226C238.76 525.226 237.417 526.569 237.417 528.226Z" fill="#FFD3D3"/>
<path d="M237.417 547.312C237.417 548.969 238.76 550.312 240.417 550.312C242.073 550.312 243.417 548.969 243.417 547.312C243.417 545.655 242.073 544.312 240.417 544.312C238.76 544.312 237.417 545.655 237.417 547.312Z" fill="#FFD3D3"/>
<path d="M237.417 566.398C237.417 568.055 238.76 569.398 240.417 569.398C242.073 569.398 243.417 568.055 243.417 566.398C243.417 564.741 242.073 563.398 240.417 563.398C238.76 563.398 237.417 564.741 237.417 566.398Z" fill="#FFD3D3"/>
<path d="M254.702 490.039C254.702 491.696 256.046 493.039 257.702 493.039C259.359 493.039 260.702 491.696 260.702 490.039C260.702 488.382 259.359 487.039 257.702 487.039C256.046 487.039 254.702 488.382 254.702 490.039Z" fill="#FFD3D3"/>
<path d="M254.702 509.125C254.702 510.782 256.046 512.125 257.702 512.125C259.359 512.125 260.702 510.782 260.702 509.125C260.702 507.468 259.359 506.125 257.702 506.125C256.046 506.125 254.702 507.468 254.702 509.125Z" fill="#FFD3D3"/>
<path d="M254.702 528.226C254.702 529.883 256.046 531.226 257.702 531.226C259.359 531.226 260.702 529.883 260.702 528.226C260.702 526.569 259.359 525.226 257.702 525.226C256.046 525.226 254.702 526.569 254.702 528.226Z" fill="#FFD3D3"/>
<path d="M254.702 547.312C254.702 548.969 256.046 550.312 257.702 550.312C259.359 550.312 260.702 548.969 260.702 547.312C260.702 545.655 259.359 544.312 257.702 544.312C256.046 544.312 254.702 545.655 254.702 547.312Z" fill="#FFD3D3"/>
<path d="M254.702 566.398C254.702 568.055 256.046 569.398 257.702 569.398C259.359 569.398 260.702 568.055 260.702 566.398C260.702 564.741 259.359 563.398 257.702 563.398C256.046 563.398 254.702 564.741 254.702 566.398Z" fill="#FFD3D3"/>
</svg>
